<svg width="64" height="96" xmlns="http://www.w3.org/2000/svg">
 <g>
  <title>Layer 1</title>
  <path stroke="#000" fill="#fff" opacity="NaN" d="m15.33843,53.35174" id="svg_11"/>
  <path stroke-width="0.5" stroke="#191919" fill="#e5e5e5" d="m12.88036,9.35356c0,0 0.1703,14.14901 0.1632,19.53472l-5.78307,6.12367c0.22707,10.12333 -0.45413,20.1899 0.1703,30.37c0.56766,5.05221 1.81652,7.49316 2.72478,9.30968c0.90826,1.81652 -1.49012,-0.92245 0.3406,-8.57172c1.83072,-7.64927 10.44501,-14.36189 16.46224,-18.222c6.01723,-3.86011 15.72428,-11.12621 17.48404,-12.37506c1.75976,-1.24886 5.96047,-4.25748 6.7552,-11.52357l0.02129,-14.48961c-1.30917,1.39314 -6.69133,6.74574 -7.87988,8.38723l-22.28434,0.02838c-2.53556,-2.93293 -5.46849,-5.75232 -8.17435,-8.57172z" id="svg_13"/>
  <path stroke-width="0.5" stroke="#191919" fill="#666666" d="m25.73246,86.64643l0,-11.92093l13.51039,-13.85099c0.05677,0.05677 0,25.77192 -0.05677,25.71516c0.05677,0.05677 15.83781,-2.78155 17.65434,-21.79828l0,-30.1997c-6.47137,6.7552 -9.25292,9.53675 -10.21794,10.27471c-0.73796,0.73796 -17.76787,13.05626 -20.89002,15.21338c-3.74658,2.72479 -13.90776,9.02585 -12.60213,19.01673c4.59807,5.41173 8.40142,6.62274 12.60213,7.54993z" id="svg_14"/>
  <path stroke="#000" fill="#666666" opacity="NaN" d="m13.24114,28.938l0.00213,16.3565l-5.70939,-5.5048l-0.08125,-4.696l5.7885,-6.15571l0,0z" id="svg_15" stroke-width="0"/>
  <path stroke="#000" fill="#e5e5e5" opacity="NaN" d="m25.51465,74.64247l-0.01225,-14.12155c-3.19916,2.2651 -13.34299,8.78542 -12.17201,18.41379l0.17174,0.27605c4.29224,5.2346 9.01541,6.55942 12.00827,7.25262l0.00425,-11.82091z" id="svg_16" stroke-width="0"/>
  <path stroke="#000" fill="#4c4c4c" d="m56.61195,38.42599l-5.53214,6.35455l-0.00094,17.96772l5.53308,-6.15845l0,-18.16383z" id="svg_17" stroke-width="0"/>
  <ellipse stroke="#000" fill="#191919" stroke-width="0" cx="23.12121" cy="26.87146" id="svg_18" rx="2.32742" ry="2.38419"/>
  <ellipse stroke="#000" fill="#191919" stroke-width="0" cx="41.11614" cy="26.75793" id="svg_20" rx="2.32742" ry="2.38419"/>
  <path stroke="#191919" fill="#191919" d="m32.12201,29.3706l-3.30888,-3.30888l6.58854,0.02922l-3.27966,3.27966z" id="svg_21"/>
  <path stroke="#191919" fill="#191919" d="m28.5315,29.70339c0.20319,0.50798 0.60958,0.8805 1.01596,0.77891c0.77891,0.16933 1.72714,-1.65941 1.69328,-1.69327c-0.1016,-0.67732 1.38848,-0.81278 1.72714,-0.03387c0.37252,0.57571 0.9821,1.761 1.42235,1.82873c0.44025,0.06773 1.0837,0.06773 1.38849,-0.64344c0.30479,-0.71117 1.45622,-0.40639 1.28689,0.23706c-0.16933,0.64344 -0.77891,1.45622 -2.26899,1.65941c-1.49008,0.20319 -2.37058,-1.38849 -2.57378,-1.72714c-0.20319,-0.33866 -0.23706,0 -0.27092,-0.03386c0.03386,0.03386 -0.9821,1.8626 -2.20126,1.79487c-1.21916,-0.06773 -2.0658,-0.20319 -2.50605,-1.59168c-0.04515,-0.59829 0.587,-1.12885 1.28689,-0.57571z" id="svg_24"/>
 </g>

</svg>