<svg width="400" height="600" xmlns="http://www.w3.org/2000/svg">

 <g>
  <title>Layer 1</title>
  <path id="svg_11" d="m82.74509,350.19608" opacity="NaN" stroke="#000" fill="#fff"/>
  <path stroke="#191919" stroke-width="3" id="svg_13" d="m64.99859,32.54239c0,0 1.22951,102.15164 1.17828,141.03483l-41.75205,44.21107c1.63935,73.08743 -3.27868,145.76502 1.22952,219.26229c4.09835,36.47541 13.11475,54.09836 19.67213,67.21312c6.55738,13.11476 -10.75821,-6.65984 2.45901,-61.88525c13.21722,-55.22541 75.40983,-103.68852 118.85246,-131.55738c43.44262,-27.86885 113.5246,-80.32787 126.22951,-89.34426c12.70492,-9.01639 43.03278,-30.7377 48.77049,-83.19672l0.15369,-104.61066c-9.45185,10.05806 -48.30943,48.70219 -56.89037,60.55328l-160.88628,0.20492c-18.30601,-21.17486 -39.48087,-41.53005 -59.01639,-61.88524z" fill="#c2abd1"/>
  <path stroke-width="3" id="svg_14" d="m157.78688,590.57378l0.00001,-86.06558l97.54098,-100c0.40983,0.40984 0,186.06557 -0.40984,185.65574c0.40984,0.40983 114.34426,-20.08197 127.45902,-157.37705l0,-218.03278c-46.72132,48.77049 -66.80328,68.85245 -73.77049,74.18032c-5.32787,5.32787 -128.27869,94.26229 -150.81968,109.83606c-27.04918,19.67214 -100.40983,65.16395 -90.9836,137.29509c33.19672,39.07104 60.65574,47.81421 90.9836,54.5082z" stroke="#191919" fill="#5b4a66"/>
  <path stroke-width="0" id="svg_15" d="m67.60327,173.9362l0.01538,118.08906l-41.22007,-39.74299l-0.58658,-33.90368l41.79126,-44.4424z" opacity="NaN" stroke="#000" fill="#5b4a66"/>
  <path stroke-width="0" id="svg_16" d="m156.21434,503.90878l-0.08844,-101.95338c-23.09698,16.35335 -96.33239,63.42813 -87.87827,132.94205l1.23989,1.99299c30.98866,37.79227 65.08858,47.35706 86.69614,52.36175l0.03068,-85.34341z" opacity="NaN" stroke="#000" fill="#c2abd1"/>
  <path stroke-width="0" id="svg_17" d="m380.72755,242.43665l-39.9404,45.87795l-0.00677,129.72157l39.94717,-44.46213l0,-131.13739z" stroke="#000" fill="#361c49"/>
  <ellipse stroke="#000" ry="17.21311" rx="16.80328" id="svg_18" cy="159.01639" cx="138.93443" stroke-width="0" fill="#191919"/>
  <ellipse stroke="#000" ry="17.21311" rx="16.80328" id="svg_20" cy="158.19672" cx="268.85246" stroke-width="0" fill="#191919"/>
  <path transform="rotate(-45 203.812 153.276)" stroke="#191919" id="svg_21" d="m187.06921,170.16806l0,-33.78431l33.486,33.78431l-33.486,0z" fill="#191919"/>
  <path id="svg_24" d="m177.99508,179.46205c1.46699,3.66749 4.40098,6.35697 7.33496,5.62347c5.62347,1.2225 12.46944,-11.98044 12.22496,-12.22489c-0.73352,-4.89002 10.02443,-5.86801 12.46944,-0.2445c2.68947,4.15644 7.09044,12.71389 10.26893,13.20289c3.17848,0.489 7.82396,0.489 10.02445,-4.64548c2.20049,-5.13447 10.51344,-2.93398 9.29095,1.71149c-1.22249,4.64548 -5.62347,10.51345 -16.38142,11.98044c-10.75795,1.46699 -17.11491,-10.02445 -18.5819,-12.46943c-1.467,-2.44499 -1.71149,0 -1.95597,-0.24446c0.24448,0.24446 -7.09049,13.44739 -15.89244,12.9584c-8.80196,-0.489 -14.91443,-1.467 -18.09291,-11.49145c-0.326,-4.31948 4.23798,-8.14996 9.29095,-4.15648z" stroke="#191919" fill="#191919"/>
 </g>
</svg>